<?xml version="1.0" encoding="utf-8"?>
<!-- Generator: Adobe Illustrator 18.0.0, SVG Export Plug-In . SVG Version: 6.00 Build 0)  -->
<!DOCTYPE svg PUBLIC "-//W3C//DTD SVG 1.1//EN" "http://www.w3.org/Graphics/SVG/1.1/DTD/svg11.dtd">
<svg version="1.1" xmlns="http://www.w3.org/2000/svg" xmlns:xlink="http://www.w3.org/1999/xlink" x="0px" y="0px"
	 viewBox="0 0 960 560" enable-background="new 0 0 960 560" xml:space="preserve">
<g id="Layer_1">
	<defs>
		<path id="SVGID_1_" d="M636.4,41.5"/>
	</defs>
	<clipPath id="SVGID_2_">
		<use xlink:href="#SVGID_1_"  overflow="visible"/>
	</clipPath>
	<g clip-path="url(#SVGID_2_)">
		<path fill="none" d="M444.6,32.5"/>
	</g>
	<g clip-path="url(#SVGID_2_)">
		<path fill="none" d="M595.6,41.5"/>
	</g>
	<g clip-path="url(#SVGID_2_)">
		<path fill="none" d="M551.1,32.5"/>
	</g>
</g>
<g id="Layer_2">
	<path fill="#FFFFFF" d="M579.5,521l31.9-43.9c9.1-12.4,7-29.8-4.8-39.7L530,372.8c-16.8-14.1-18.6-39.3-4.2-55.8l19.2-21.9
		c10.6-12.1,9.1-30.6-3.3-40.8L474,198.6c-14.4-11.9-14.9-33.8-0.9-46.3l30.4-27c18.1-16.1,19.4-43.9,2.9-61.6L446.5-0.5H352
		l59.9,64.2c16.5,17.7,15.2,45.5-2.9,61.6l-30.4,27c-14,12.4-13.6,34.4,0.9,46.3l67.8,55.7c12.4,10.2,13.9,28.7,3.3,40.8L431.4,317
		c-14.5,16.5-12.6,41.6,4.2,55.8l76.6,64.6c11.8,9.9,13.9,27.2,4.8,39.7L485,521H579.5z"/>
	<path fill="#FFFFFF" d="M708.7,477.6L676.8,522h-85.3l31.9-44.4c9.1-12.4,7-30-4.8-39.9L542,372.9c-16.8-14.1-18.6-39.4-4.2-55.9
		l19.2-21.9c10.6-12.1,9.1-30.6-3.3-40.8L486,198.6c-14.4-11.9-14.9-33.8-0.9-46.3l30.4-27.1c18.1-16.1,19.4-43.6,2.9-61.3L458.5,0
		h85.3l59.9,64c16.5,17.7,15.2,45.4-2.9,61.4l-30.4,27c-14,12.4-13.5,34.4,0.9,46.2l67.8,55.7c12.4,10.2,13.9,28.7,3.3,40.8
		L623.1,317c-14.5,16.5-12.6,41.6,4.2,55.8l76.6,64.9C715.7,447.6,717.8,465.1,708.7,477.6z"/>
</g>
</svg>
